<?xml version="1.0" standalone="no"?>
<!DOCTYPE svg PUBLIC "-//W3C//DTD SVG 20010904//EN"
 "http://www.w3.org/TR/2001/REC-SVG-20010904/DTD/svg10.dtd">
<svg version="1.0" xmlns="http://www.w3.org/2000/svg"
 width="100.000000pt" height="100.000000pt" viewBox="0 0 100.000000 100.000000"
 preserveAspectRatio="xMidYMid meet">
<metadata>
Created by potrace 1.11, written by Peter Selinger 2001-2013
</metadata>
<g transform="translate(0.000000,100.000000) scale(0.100000,-0.100000)"
fill="#000000" stroke="none">
<path d="M420 787 c-87 -25 -157 -72 -200 -133 -8 -12 -31 -29 -50 -39 -94
-47 -119 -106 -76 -180 15 -24 35 -49 46 -55 11 -6 20 -18 20 -26 0 -35 57
-129 107 -174 68 -62 140 -90 233 -90 103 0 170 29 247 105 34 34 76 68 93 75
36 15 77 61 86 96 8 31 -12 80 -52 124 -17 19 -36 51 -43 71 -15 45 -66 118
-108 153 -80 67 -213 99 -303 73z m224 -85 c111 -60 172 -195 145 -321 -13
-60 -38 -91 -74 -91 -14 0 -25 1 -25 3 0 1 7 20 15 42 21 60 19 93 -6 97 -12
2 -26 13 -30 26 -7 18 -3 28 17 49 22 22 24 29 15 54 -18 51 -69 116 -118 149
-42 27 -44 31 -18 24 17 -3 52 -18 79 -32z m-144 -57 c10 -12 10 -18 0 -30
-25 -30 -61 -7 -46 30 3 8 12 15 19 15 8 0 20 -7 27 -15z m-346 -149 c-5 -31
-10 -43 -15 -34 -13 19 -11 62 3 76 17 17 19 11 12 -42z m312 -64 c21 -13 32
-47 23 -69 -23 -63 -109 -43 -109 25 0 37 54 65 86 44z m400 -66 c-3 -14 -11
-26 -17 -26 -7 0 -9 9 -5 23 3 12 6 33 7 47 0 25 0 25 11 3 6 -12 8 -33 4 -47z
m-146 -130 c0 -10 -109 -76 -135 -82 -29 -6 -29 -6 14 32 26 23 59 42 80 45
20 3 37 7 39 8 1 0 2 -1 2 -3z"/>
<path d="M196 771 c-9 -14 4 -41 19 -41 17 0 38 27 30 40 -8 12 -42 13 -49 1z"/>
<path d="M902 148 c2 -15 10 -23 23 -23 30 0 27 39 -3 43 -20 3 -23 0 -20 -20z"/>
</g>
</svg>
