<?xml version="1.0" standalone="no"?>
<!DOCTYPE svg PUBLIC "-//W3C//DTD SVG 20010904//EN"
 "http://www.w3.org/TR/2001/REC-SVG-20010904/DTD/svg10.dtd">
<svg version="1.0" xmlns="http://www.w3.org/2000/svg"
 width="2800.000000pt" height="2800.000000pt" viewBox="0 0 2800.000000 2800.000000"
 preserveAspectRatio="xMidYMid meet">
<metadata>
Created by potrace 1.11, written by Peter Selinger 2001-2013
</metadata>
<g transform="translate(0.000000,2800.000000) scale(0.100000,-0.100000)"
fill="#000000" stroke="none">
<path d="M12995 26944 c-110 -47 -218 -94 -240 -103 -22 -10 -436 -188 -920
-396 -484 -208 -883 -380 -888 -384 -4 -4 50 -26 120 -50 71 -23 137 -46 148
-51 11 -4 103 -36 205 -70 102 -34 194 -65 205 -70 11 -5 97 -34 190 -65 185
-62 406 -137 955 -325 195 -66 400 -136 455 -155 55 -19 246 -84 425 -145 179
-61 386 -131 460 -156 74 -25 144 -49 155 -54 11 -4 144 -49 295 -100 151 -50
284 -95 295 -100 11 -5 76 -27 145 -50 69 -22 132 -44 140 -47 8 -3 17 -7 20
-8 19 -4 88 -28 105 -35 11 -5 97 -34 190 -66 94 -31 328 -111 520 -176 193
-66 375 -128 405 -138 30 -10 228 -78 440 -150 212 -73 410 -140 440 -150 30
-10 242 -82 470 -160 228 -78 432 -147 453 -152 20 -6 37 -14 37 -19 0 -5 14
-39 31 -76 29 -65 49 -108 98 -216 105 -233 169 -373 197 -435 19 -41 34 -75
34 -77 0 -2 20 -48 45 -101 25 -53 45 -97 45 -99 0 -2 19 -43 41 -92 23 -48
58 -126 79 -173 21 -47 51 -114 68 -150 16 -36 130 -288 252 -560 122 -272
240 -533 261 -578 22 -46 39 -85 39 -87 0 -2 20 -45 44 -97 24 -51 58 -127 76
-168 18 -41 50 -113 72 -160 22 -47 55 -119 73 -160 28 -65 175 -390 245 -545
31 -69 119 -263 190 -420 12 -27 34 -75 47 -105 14 -30 54 -118 88 -195 35
-77 74 -165 88 -195 14 -30 98 -216 186 -413 89 -196 165 -365 171 -375 5 -9
34 -73 64 -142 49 -114 76 -173 141 -315 13 -27 53 -117 90 -200 37 -82 87
-192 111 -244 24 -51 44 -95 44 -97 0 -4 52 -121 113 -254 14 -30 45 -100 70
-155 25 -55 59 -129 75 -165 17 -36 57 -126 90 -200 33 -74 74 -166 92 -205
17 -38 38 -83 45 -100 7 -16 30 -66 50 -110 21 -44 66 -143 100 -220 134 -300
248 -553 280 -621 18 -39 36 -80 39 -92 4 -12 10 -22 14 -22 6 0 96 236 107
280 2 8 52 148 110 310 59 162 110 306 115 320 16 52 142 406 156 437 8 17 14
34 14 38 0 4 52 154 116 334 183 513 194 543 210 591 8 25 19 54 24 65 5 11
23 59 39 106 l29 86 -79 179 c-44 98 -88 197 -98 219 -10 22 -94 209 -186 415
-92 206 -178 400 -192 430 -21 46 -67 150 -158 355 -7 17 -30 66 -50 110 -20
44 -41 89 -45 100 -4 11 -87 198 -185 415 -97 217 -183 409 -190 425 -60 135
-281 628 -295 660 -10 22 -54 121 -98 220 -44 99 -91 205 -105 235 -14 30 -51
114 -82 185 -32 72 -68 153 -80 180 -13 28 -80 178 -150 335 -70 157 -143 318
-161 358 -19 41 -34 75 -34 77 0 2 -16 38 -36 82 -59 128 -75 163 -116 258
-21 50 -47 108 -58 130 -11 22 -46 101 -79 175 -32 74 -71 162 -86 195 -15 33
-44 98 -65 145 -21 47 -50 112 -65 145 -15 33 -45 101 -67 150 -22 50 -48 108
-58 130 -10 22 -36 81 -58 130 -22 50 -54 122 -72 160 -50 111 -55 122 -123
275 -107 243 -210 475 -213 479 -4 4 -99 36 -1534 511 -1616 535 -1816 601
-2895 958 -550 182 -1245 412 -1545 512 -300 99 -552 180 -560 180 -8 -1 -105
-39 -215 -86z"/>
<path d="M10114 25705 c-93 -39 -185 -79 -204 -88 -19 -9 -96 -41 -170 -73
-74 -31 -153 -64 -175 -74 -22 -10 -236 -102 -475 -205 -239 -103 -448 -193
-465 -200 -16 -7 -127 -55 -245 -105 -118 -51 -233 -100 -255 -110 -22 -10
-69 -30 -105 -45 -36 -14 -78 -32 -95 -40 -16 -7 -372 -160 -790 -340 -418
-179 -779 -335 -802 -345 -24 -11 -45 -20 -48 -20 -3 0 -24 -9 -48 -20 -46
-21 -543 -235 -1617 -695 -382 -164 -698 -301 -703 -305 -4 -3 -21 -44 -37
-91 -50 -145 -548 -1598 -664 -1939 -30 -85 -63 -180 -74 -211 l-20 -57 42 18
c22 10 172 75 331 145 160 70 346 152 415 182 69 30 148 65 175 77 28 13 100
45 160 71 61 26 133 57 160 70 28 12 84 37 125 55 41 18 103 46 138 61 34 16
65 29 67 29 2 0 28 11 57 24 29 13 127 56 218 96 91 40 193 85 228 101 35 16
65 29 68 29 2 0 34 14 71 31 38 17 82 37 98 44 17 7 347 153 735 323 388 170
764 335 835 367 72 31 144 62 160 70 102 46 337 149 500 220 105 45 211 92
238 104 117 52 155 69 377 166 129 57 298 131 375 165 77 34 155 68 173 76
228 99 764 335 814 358 31 14 67 30 80 35 23 9 433 189 495 217 17 8 62 27 99
43 l68 29 81 -30 c110 -40 531 -193 635 -229 47 -17 108 -39 135 -49 41 -16
324 -117 450 -161 17 -6 39 -15 50 -19 20 -9 54 -21 525 -190 140 -50 278
-100 305 -110 28 -10 84 -30 125 -45 41 -14 84 -29 95 -34 11 -5 74 -28 140
-51 66 -22 129 -45 140 -50 11 -5 90 -34 175 -64 85 -29 229 -81 320 -114 91
-33 287 -104 435 -157 149 -53 306 -110 350 -127 44 -16 86 -32 95 -33 8 -2
134 -47 280 -100 146 -53 371 -135 500 -182 129 -46 264 -95 300 -108 36 -13
130 -47 210 -75 80 -28 154 -55 165 -60 11 -4 124 -45 250 -91 127 -45 322
-115 435 -156 113 -41 248 -89 300 -107 52 -19 138 -50 190 -69 52 -19 205
-74 340 -122 135 -48 254 -91 265 -96 11 -5 135 -49 275 -99 140 -50 365 -131
500 -180 296 -107 333 -120 337 -116 2 2 -12 39 -31 82 -19 44 -66 158 -106
254 -40 96 -78 189 -85 205 -7 17 -29 68 -48 115 -20 47 -66 157 -103 245 -36
88 -74 180 -84 205 -32 81 -488 1172 -492 1174 -1 2 -104 37 -228 79 -124 42
-479 162 -790 267 -311 105 -603 204 -650 220 -149 50 -780 264 -1240 420
-532 181 -616 209 -1005 340 -165 55 -307 103 -315 106 -13 5 -1043 355 -1190
404 -30 10 -282 95 -560 190 -278 94 -570 193 -650 220 -80 27 -330 111 -556
188 l-412 139 -168 -72z"/>
<path d="M20389 24618 c10 -24 34 -77 54 -118 19 -41 89 -192 155 -335 122
-266 161 -351 215 -465 16 -36 40 -89 53 -118 23 -51 37 -81 138 -295 25 -54
46 -100 46 -102 0 -2 21 -47 46 -102 40 -85 232 -501 306 -663 65 -141 93
-201 125 -270 20 -41 48 -102 63 -135 15 -33 80 -175 145 -315 64 -140 139
-302 166 -358 27 -57 49 -105 49 -107 0 -2 19 -43 41 -92 69 -147 105 -226
129 -278 12 -27 42 -92 66 -143 24 -51 67 -143 95 -205 79 -172 121 -264 232
-502 35 -77 74 -160 85 -185 11 -25 39 -85 62 -135 23 -49 56 -119 72 -154 51
-114 60 -134 115 -250 29 -62 53 -114 53 -116 0 -2 22 -50 49 -107 27 -56 60
-128 74 -158 66 -145 147 -321 175 -380 16 -36 44 -95 61 -132 17 -38 44 -96
60 -130 16 -35 97 -210 180 -390 l150 -328 -555 -1667 c-305 -918 -558 -1675
-561 -1683 -3 -8 -7 -19 -9 -25 -1 -5 -389 -1171 -863 -2590 -473 -1418 -859
-2580 -858 -2582 3 -2 66 28 392 187 116 56 296 144 400 195 255 124 556 271
805 392 113 56 305 149 428 209 l222 109 25 65 c13 36 101 279 195 540 94 261
189 525 211 585 22 61 48 133 58 160 10 28 30 82 44 120 14 39 116 322 227
630 111 308 210 584 221 613 10 28 28 77 39 107 11 30 29 79 39 108 11 28 34
93 51 142 18 50 53 146 77 215 25 69 63 175 85 235 22 61 46 126 53 145 7 19
39 107 70 195 31 88 61 169 66 180 4 11 37 101 73 200 35 99 107 302 161 450
53 149 100 279 105 290 4 11 61 166 125 345 64 179 120 334 124 345 5 11 16
40 24 65 8 25 33 95 55 155 22 61 70 191 105 290 36 99 104 286 150 415 167
462 266 736 288 800 l22 65 -60 125 c-117 242 -256 532 -323 675 -21 44 -66
139 -100 210 -79 166 -151 316 -205 430 -23 50 -71 149 -105 220 -34 72 -84
175 -110 230 -26 55 -73 154 -105 220 -71 147 -144 301 -200 420 -23 50 -92
194 -152 320 -144 300 -191 399 -248 520 -26 55 -88 183 -136 283 -49 101 -89
185 -89 187 0 2 -35 77 -79 167 -43 89 -102 213 -131 273 -60 126 -238 500
-312 655 -28 58 -74 155 -103 215 -54 115 -105 221 -210 440 -34 72 -83 173
-108 225 -25 52 -71 149 -102 215 -32 66 -77 161 -100 210 l-43 91 -344 113
c-188 62 -352 116 -363 121 -11 5 -270 90 -575 190 -305 100 -564 185 -575
190 -29 12 -479 160 -487 160 -4 0 1 -19 11 -42z"/>
<path d="M10235 23379 c-99 -43 -189 -83 -200 -88 -17 -8 -143 -63 -610 -266
-16 -7 -50 -22 -75 -33 -25 -11 -90 -39 -145 -62 -55 -23 -122 -53 -150 -65
-27 -13 -221 -97 -430 -188 -209 -91 -474 -207 -590 -257 -115 -51 -257 -112
-315 -137 -58 -25 -123 -53 -145 -63 -22 -10 -197 -86 -390 -169 -192 -84
-374 -163 -403 -177 -29 -13 -54 -24 -57 -24 -2 0 -33 -13 -68 -30 -36 -16
-67 -30 -70 -30 -3 0 -40 -16 -84 -36 -113 -51 -103 -47 -283 -125 -91 -39
-178 -77 -195 -84 -16 -8 -208 -91 -425 -185 -217 -94 -408 -177 -425 -185
-16 -7 -156 -68 -310 -135 -154 -67 -304 -132 -333 -146 -29 -13 -54 -24 -57
-24 -2 0 -32 -13 -67 -29 -35 -15 -112 -50 -173 -76 -60 -26 -128 -55 -150
-65 -22 -10 -125 -55 -230 -100 -104 -45 -203 -88 -220 -96 -16 -7 -181 -79
-364 -159 -184 -80 -338 -148 -342 -152 -4 -5 -25 -60 -47 -123 -22 -63 -61
-173 -87 -245 -26 -71 -50 -141 -55 -155 -8 -24 -93 -266 -165 -470 -69 -194
-139 -390 -200 -565 -35 -99 -74 -211 -88 -250 -14 -38 -55 -153 -90 -255 -36
-102 -74 -210 -85 -240 -12 -30 -64 -179 -117 -330 -53 -151 -103 -293 -112
-315 -8 -22 -21 -58 -28 -80 -7 -22 -34 -98 -60 -170 -25 -71 -66 -186 -90
-255 -24 -69 -78 -222 -120 -340 -43 -118 -85 -240 -95 -270 -10 -30 -25 -73
-33 -95 -9 -22 -29 -79 -46 -127 -17 -49 -44 -125 -60 -170 -16 -46 -71 -200
-121 -343 -105 -295 -207 -585 -374 -1058 -64 -180 -116 -331 -116 -335 0 -7
134 -321 199 -466 10 -22 33 -75 51 -116 17 -41 38 -88 45 -105 7 -16 52 -120
100 -230 47 -110 93 -214 100 -231 8 -16 29 -66 48 -110 28 -64 138 -315 201
-459 88 -199 197 -449 262 -602 21 -51 42 -93 45 -93 3 0 85 213 183 473 99
259 184 486 191 502 7 17 29 73 48 125 20 52 59 154 87 227 27 73 50 135 50
139 0 3 6 20 14 37 8 18 60 154 116 302 56 149 105 279 109 290 24 58 46 114
96 250 31 83 67 177 80 210 12 33 76 200 140 370 64 171 143 380 176 465 76
198 89 234 134 355 21 55 43 114 50 130 7 17 54 140 105 275 50 135 96 254
101 265 5 11 13 34 18 50 6 17 23 64 39 105 35 90 192 505 332 875 90 237 131
345 210 550 22 58 253 668 360 953 40 106 78 199 84 206 6 8 112 59 236 114
124 55 252 112 285 127 33 14 74 32 90 40 17 7 65 29 108 49 42 20 79 36 82
36 2 0 32 13 67 29 35 16 191 86 348 156 157 70 291 132 298 137 6 6 12 8 12
5 0 -5 164 68 348 154 34 16 64 29 66 29 3 0 33 13 68 29 35 16 124 56 198 89
192 85 226 100 308 138 40 19 75 34 77 34 3 0 28 11 57 24 49 22 454 204 923
413 105 47 208 93 230 103 22 10 123 55 225 100 335 149 660 294 720 322 25
11 63 28 85 38 22 9 60 26 85 38 25 11 113 50 195 87 83 36 168 74 190 84 22
10 56 25 75 34 38 16 109 49 205 93 33 15 65 28 70 30 10 3 397 176 480 214
22 10 81 37 130 58 50 22 117 52 150 67 62 28 105 48 190 85 28 13 156 70 285
128 129 57 339 151 465 207 420 187 789 352 845 378 30 13 84 37 120 53 36 16
80 36 98 45 l34 16 -119 42 c-65 24 -219 81 -343 126 -265 98 -421 155 -545
200 -49 18 -270 99 -490 180 -220 81 -422 156 -450 165 -27 10 -173 64 -323
119 -151 56 -275 101 -275 100 -1 0 -83 -36 -182 -80z"/>
<path d="M7160 19439 c-206 -88 -394 -169 -417 -179 -24 -11 -46 -20 -49 -20
-3 0 -40 -16 -81 -35 -41 -19 -79 -35 -85 -35 -5 0 -22 -6 -36 -14 -33 -17
-120 -56 -127 -56 -2 0 -28 -11 -57 -24 -29 -13 -251 -108 -493 -211 -242
-103 -458 -195 -480 -205 -22 -10 -69 -30 -105 -45 -36 -15 -89 -38 -118 -51
-29 -13 -55 -24 -58 -24 -3 0 -29 -11 -57 -24 -29 -13 -61 -26 -73 -30 -15 -4
-30 -30 -53 -94 -18 -48 -36 -96 -41 -107 -5 -11 -77 -204 -160 -428 -83 -225
-155 -418 -160 -430 -5 -12 -39 -103 -75 -202 -109 -297 -356 -959 -365 -980
-5 -11 -61 -159 -124 -330 -99 -268 -345 -930 -508 -1365 -27 -74 -70 -187
-93 -250 -24 -63 -87 -231 -139 -372 -53 -141 -100 -267 -105 -280 -6 -13 -35
-93 -66 -178 -31 -85 -83 -225 -115 -310 -32 -85 -82 -217 -110 -294 -28 -76
-55 -148 -60 -160 -9 -21 -103 -274 -145 -391 -12 -33 -58 -157 -102 -275
-168 -446 -246 -656 -260 -695 -8 -22 -46 -125 -85 -230 -40 -104 -71 -197
-71 -205 1 -8 22 -60 46 -115 25 -55 91 -206 147 -335 56 -129 155 -356 220
-505 65 -148 186 -427 270 -620 149 -343 170 -391 209 -477 10 -24 31 -71 45
-105 14 -35 37 -86 50 -115 32 -71 347 -794 406 -933 26 -60 56 -130 68 -155
11 -25 59 -135 107 -245 48 -110 109 -251 136 -313 27 -61 72 -165 100 -230
28 -64 57 -130 64 -147 42 -94 364 -834 494 -1135 56 -129 108 -248 116 -265
8 -16 93 -209 188 -429 l173 -399 90 -33 c77 -28 322 -117 799 -289 66 -24
228 -82 360 -130 132 -48 402 -145 600 -216 198 -72 376 -136 395 -144 98 -38
174 -64 177 -61 2 2 -34 90 -81 197 -46 107 -148 343 -226 524 -78 182 -150
348 -160 370 -10 22 -25 56 -33 75 -9 19 -32 73 -52 120 -21 47 -56 130 -80
185 -36 86 -309 718 -351 813 -8 17 -20 47 -28 65 -20 45 -274 633 -482 1114
-95 221 -182 422 -192 445 -11 24 -48 108 -82 188 -111 259 -411 954 -425 985
-7 17 -73 167 -145 335 -72 168 -145 337 -162 375 -17 39 -37 84 -44 101 -178
412 -265 614 -355 823 l-110 253 82 232 c80 227 182 520 254 726 20 58 40 114
45 125 5 11 34 94 65 185 59 171 85 245 180 515 31 88 103 293 160 455 57 162
124 354 150 425 25 72 57 162 70 200 13 39 33 95 43 125 11 30 68 192 126 360
59 168 113 321 121 340 7 19 36 100 64 180 63 183 432 1238 471 1345 15 44 90
256 165 470 75 215 161 458 190 540 29 83 73 209 98 280 25 72 72 207 105 300
33 94 124 352 202 575 78 223 169 482 202 575 33 94 88 251 123 350 35 99 113
322 174 495 60 173 109 315 108 317 -1 1 -171 -70 -377 -158z"/>
<path d="M26017 16933 c-3 -10 -24 -70 -47 -133 -23 -63 -54 -151 -70 -195
-15 -44 -54 -152 -85 -240 -32 -88 -70 -196 -85 -240 -16 -44 -49 -138 -75
-210 -25 -71 -64 -182 -86 -245 -22 -63 -47 -131 -54 -150 -8 -19 -51 -138
-95 -265 -44 -126 -87 -246 -94 -265 -8 -19 -35 -96 -61 -170 -25 -74 -55
-157 -65 -185 -10 -27 -60 -167 -110 -310 -50 -143 -95 -269 -100 -280 -4 -11
-35 -96 -68 -190 -33 -93 -86 -242 -117 -330 -31 -88 -126 -356 -212 -595 -85
-239 -173 -487 -195 -550 -21 -63 -43 -124 -48 -135 -8 -20 -16 -44 -130 -365
-34 -96 -72 -205 -86 -242 -13 -38 -35 -98 -48 -135 -14 -38 -43 -120 -66
-183 -23 -63 -43 -123 -45 -133 -2 -9 -6 -21 -10 -26 -3 -5 -23 -63 -46 -128
-22 -65 -44 -127 -49 -138 -5 -11 -22 -58 -38 -105 -17 -47 -55 -155 -85 -240
-31 -85 -70 -195 -87 -245 -18 -49 -55 -153 -82 -230 -27 -77 -66 -189 -86
-248 l-37 -109 -4110 -2054 c-2260 -1130 -4113 -2058 -4117 -2062 -3 -4 240
-101 540 -216 301 -116 590 -227 642 -247 148 -58 790 -304 1106 -425 l91 -34
124 59 c68 32 174 82 234 111 61 29 151 72 200 95 50 23 146 69 215 102 69 33
166 79 215 103 50 23 146 70 215 102 69 33 170 82 225 108 55 26 159 76 230
110 72 34 166 79 210 100 44 21 132 62 195 93 63 30 158 75 210 100 52 25 163
77 245 117 83 40 186 89 230 110 122 57 252 119 449 214 98 47 180 86 181 86
2 0 83 39 181 86 182 87 279 133 439 209 50 23 196 93 325 155 301 144 443
212 555 265 50 23 153 73 230 110 77 37 181 86 230 110 199 95 316 150 435
207 69 33 161 77 205 98 44 21 148 70 230 110 83 39 175 83 205 96 30 14 69
32 85 41 50 28 58 31 115 57 30 13 123 56 205 96 83 40 186 89 230 110 44 21
139 66 210 101 72 34 133 62 137 61 14 -3 31 33 77 169 27 79 79 230 116 334
36 105 68 197 70 205 2 8 15 47 29 85 22 63 132 382 266 770 26 77 67 194 90
260 23 66 50 145 60 175 10 30 57 168 105 305 48 138 129 374 182 525 52 151
103 300 114 330 11 30 21 62 24 70 2 8 17 53 34 100 46 131 207 597 266 770
29 85 74 216 100 290 25 74 70 205 100 290 29 85 99 288 155 450 56 162 105
306 110 320 5 14 50 144 100 290 51 146 98 283 106 305 7 22 30 90 52 151 l38
111 -42 89 c-170 353 -216 450 -294 614 -48 102 -116 244 -150 315 -67 139
-137 286 -205 430 -23 50 -73 153 -110 230 -37 77 -83 174 -102 215 -20 41
-72 152 -117 245 -45 94 -95 200 -111 237 -32 71 -39 79 -48 51z"/>
<path d="M5836 13009 c-10 -24 -99 -242 -198 -484 -99 -242 -243 -593 -319
-780 -77 -187 -144 -349 -149 -360 -5 -11 -34 -81 -64 -155 -54 -134 -230
-565 -265 -649 -13 -30 -16 -52 -11 -65 13 -32 300 -692 370 -851 10 -22 41
-94 70 -160 29 -66 67 -154 85 -195 18 -41 88 -201 155 -355 66 -154 130 -299
141 -322 10 -24 19 -45 19 -47 0 -3 13 -33 29 -68 16 -35 36 -79 44 -98 8 -19
79 -181 157 -360 78 -179 148 -338 155 -355 8 -16 68 -156 135 -310 66 -154
127 -293 135 -310 8 -16 92 -208 186 -425 163 -377 184 -424 228 -522 10 -24
55 -126 99 -228 114 -264 460 -1057 481 -1105 17 -37 294 -672 401 -920 26
-60 59 -135 73 -165 22 -49 128 -292 179 -410 21 -51 -10 -36 343 -163 99 -36
191 -70 205 -75 14 -6 75 -29 135 -50 130 -47 352 -128 560 -205 137 -50 461
-169 695 -254 52 -19 118 -43 145 -53 28 -10 163 -60 300 -110 486 -176 530
-192 560 -205 17 -8 44 -17 60 -21 17 -4 35 -10 40 -14 6 -4 37 -17 70 -28 33
-11 148 -53 255 -92 107 -40 245 -90 305 -111 61 -22 119 -43 130 -49 11 -5
40 -16 65 -24 25 -8 106 -37 180 -64 74 -28 248 -91 385 -142 138 -50 282
-103 320 -116 39 -14 79 -29 90 -34 11 -5 178 -66 370 -136 193 -70 379 -138
415 -151 36 -13 70 -26 75 -27 6 -2 17 -6 25 -9 13 -6 177 -66 495 -182 50
-18 147 -53 217 -79 70 -25 129 -46 132 -46 5 0 459 210 695 321 57 27 105 49
107 49 1 0 69 31 150 70 80 38 148 70 149 70 2 0 54 24 117 54 108 51 159 75
293 136 98 45 216 100 280 130 214 102 433 203 448 207 30 9 19 18 -60 47 -43
16 -116 44 -163 62 -93 35 -1304 489 -1360 510 -19 7 -75 28 -125 47 -130 49
-1032 388 -1085 407 -25 9 -54 21 -65 25 -11 4 -56 21 -100 37 -44 16 -96 36
-115 43 -36 15 -549 207 -610 229 -19 7 -271 102 -560 211 -289 108 -547 206
-575 216 -27 10 -529 198 -1115 418 -975 365 -1066 402 -1080 428 -9 15 -29
57 -44 92 -16 35 -50 109 -76 165 -26 56 -58 124 -70 151 -12 28 -44 97 -71
153 -27 57 -49 105 -49 107 0 2 -22 50 -49 107 -43 92 -79 169 -190 411 -17
37 -45 97 -62 135 -17 37 -44 94 -59 127 -15 33 -43 94 -63 135 -19 41 -116
251 -215 465 -99 215 -196 424 -215 465 -19 41 -49 107 -67 145 -40 88 -263
570 -300 650 -52 111 -162 350 -187 405 -14 30 -45 96 -68 145 -42 89 -60 129
-108 235 -26 57 -69 150 -143 308 -24 51 -44 95 -44 97 0 2 -27 60 -60 129
-33 69 -60 127 -60 130 0 2 -29 65 -65 141 -36 75 -65 138 -65 140 0 2 -27 60
-60 130 -33 70 -60 128 -60 130 0 1 -25 56 -56 121 -31 66 -92 198 -136 294
-44 96 -102 221 -129 278 -27 57 -49 105 -49 108 0 2 -27 60 -60 129 -33 69
-60 127 -60 129 0 2 -22 50 -49 107 -27 57 -71 154 -99 214 -28 61 -75 163
-106 229 -31 65 -56 119 -56 121 0 2 -27 60 -60 130 -33 70 -60 128 -60 130 0
1 -22 49 -49 106 -64 138 -83 178 -292 633 -99 214 -186 400 -193 414 l-13 24
-17 -43z"/>
<path d="M9037 7502 c36 -87 80 -193 98 -237 18 -44 60 -145 93 -225 33 -80
110 -266 171 -415 62 -148 116 -279 121 -290 5 -11 50 -119 100 -240 129 -312
199 -480 231 -555 15 -36 70 -171 124 -300 53 -129 106 -255 118 -280 l22 -45
340 -127 c187 -70 491 -185 675 -254 184 -70 412 -155 505 -191 94 -35 186
-70 205 -78 19 -8 125 -48 236 -89 111 -41 212 -79 225 -85 13 -5 105 -39 204
-76 99 -37 189 -71 200 -75 11 -5 94 -37 185 -70 91 -34 176 -66 190 -72 37
-15 496 -188 560 -210 30 -11 64 -24 75 -29 18 -8 193 -74 395 -149 41 -16
188 -71 325 -123 138 -52 349 -131 470 -176 121 -45 229 -86 240 -91 11 -5
189 -73 395 -150 206 -77 409 -153 450 -169 41 -16 113 -43 160 -60 47 -18 94
-36 105 -41 11 -5 146 -56 300 -114 154 -57 381 -142 505 -189 330 -125 308
-119 350 -97 19 10 118 57 220 103 102 47 230 107 285 132 55 26 123 57 150
70 28 12 91 42 140 65 213 100 435 203 565 263 30 13 93 43 140 65 165 77 236
110 300 140 36 16 101 47 145 67 44 21 107 50 140 65 33 15 94 43 135 63 182
85 259 121 310 144 30 14 123 57 205 96 83 38 177 82 210 97 33 15 96 45 140
66 44 20 82 38 85 39 7 2 95 43 224 104 59 28 110 51 111 51 2 0 69 31 150 70
81 38 148 70 150 70 2 0 54 24 116 54 135 63 253 119 329 154 151 69 397 183
555 258 44 20 82 38 85 39 3 0 30 13 60 27 139 65 229 108 280 131 30 14 129
60 220 102 91 42 190 88 220 102 30 14 98 46 150 70 52 25 120 57 150 70 209
96 534 247 579 270 l54 28 44 130 c24 72 46 135 47 140 2 6 6 17 9 25 4 8 20
56 36 105 17 50 44 128 60 175 16 47 71 204 121 350 125 363 263 762 377 1090
106 308 113 330 108 330 -2 0 -71 -32 -152 -71 -81 -39 -188 -91 -238 -114
-49 -23 -157 -75 -240 -115 -82 -40 -195 -94 -250 -120 -55 -26 -158 -76 -230
-110 -71 -34 -175 -84 -230 -110 -55 -26 -167 -80 -250 -120 -82 -40 -193 -92
-245 -117 -52 -25 -153 -74 -225 -108 -71 -34 -175 -84 -230 -110 -55 -26
-165 -79 -245 -118 -80 -38 -192 -92 -250 -119 -58 -28 -161 -77 -230 -110
-69 -33 -172 -83 -230 -110 -58 -28 -157 -75 -220 -105 -312 -151 -391 -188
-465 -223 -44 -21 -147 -70 -230 -110 -240 -116 -413 -199 -510 -245 -49 -24
-153 -73 -230 -110 -77 -37 -185 -89 -240 -115 -55 -26 -158 -76 -230 -110
-71 -34 -166 -79 -210 -100 -44 -21 -152 -73 -240 -115 -88 -43 -209 -101
-270 -130 -60 -29 -163 -78 -227 -109 -65 -31 -171 -81 -235 -112 -119 -57
-230 -110 -492 -236 l-144 -69 -116 46 c-64 26 -129 52 -146 59 -16 8 -95 39
-175 71 -80 31 -158 63 -175 70 -16 7 -223 90 -460 185 -453 181 -538 215
-570 230 -23 10 -358 144 -425 170 -68 26 -401 160 -435 175 -29 13 -725 292
-1140 457 -110 44 -213 86 -230 93 -16 8 -156 64 -310 125 -154 62 -417 167
-585 235 -168 68 -498 200 -735 295 -236 95 -443 178 -460 185 -36 16 -510
206 -610 245 -94 36 -323 128 -360 145 -16 7 -302 122 -635 255 -333 133 -618
248 -635 255 -16 7 -50 20 -75 30 -25 9 -58 23 -75 30 -16 7 -66 27 -110 44
-44 18 -89 36 -100 41 -11 5 -36 16 -56 24 l-37 14 65 -156z"/>
</g>
</svg>
